<svg width="407" height="271" viewBox="0 0 407 271" fill="none" xmlns="http://www.w3.org/2000/svg">
<rect width="407" height="271" fill="#F3F5FF"/>
<g clip-path="url(#clip0_927_1444)">
<path d="M253.525 131.616H253.437C252.354 130.468 251.183 129.633 249.925 129.077C248.667 128.52 247.286 128.242 245.766 128.242C242.568 128.242 239.947 129.373 237.867 131.633C235.788 133.894 234.757 136.763 234.757 140.206V141.041C234.757 144.467 235.805 147.267 237.885 149.458C239.982 151.649 242.533 152.745 245.574 152.745C247.251 152.745 248.737 152.449 250.03 151.858C251.323 151.266 252.389 150.414 253.193 149.267H253.28L254.171 152.049H258.54V128.938H254.451L253.525 131.616ZM251.323 146.119C250.187 147.493 248.632 148.171 246.657 148.171C244.682 148.171 243.075 147.493 241.956 146.119C240.838 144.745 240.279 142.867 240.279 140.502C240.279 138.137 240.838 136.242 241.956 134.868C243.075 133.477 244.63 132.781 246.657 132.781C248.684 132.781 250.187 133.477 251.323 134.868C252.459 136.259 253.018 138.137 253.018 140.502C253.018 142.867 252.459 144.745 251.323 146.119Z" fill="#222B5E"/>
<path d="M280.278 130.799H280.191C279.387 129.93 278.426 129.304 277.325 128.886C276.224 128.469 274.896 128.26 273.358 128.26C270.021 128.26 267.277 129.373 265.163 131.616C263.048 133.86 261.982 136.729 261.982 140.242V141.129C261.982 144.485 263.048 147.285 265.18 149.493C267.312 151.719 269.881 152.815 272.887 152.815C274.617 152.815 276.137 152.537 277.413 151.997C278.706 151.458 279.789 150.624 280.68 149.476H280.768L281.554 152.067H285.87V120H280.244V130.799H280.278ZM278.671 146.12C277.535 147.493 275.98 148.172 274.005 148.172C272.03 148.172 270.423 147.493 269.304 146.12C268.186 144.746 267.627 142.868 267.627 140.503C267.627 138.138 268.186 136.242 269.304 134.868C270.423 133.477 271.978 132.782 274.005 132.782C276.032 132.782 277.552 133.477 278.671 134.868C279.807 136.26 280.366 138.138 280.366 140.503C280.366 142.868 279.807 144.746 278.671 146.12Z" fill="#222B5E"/>
<path d="M147.593 142.677C147.593 144.434 147.209 145.755 146.458 146.66C145.706 147.546 144.57 147.999 143.085 147.999C141.6 147.999 140.481 147.546 139.712 146.66C138.961 145.773 138.576 144.434 138.576 142.677V129.461H133.002V143.042C133.002 145.999 133.928 148.364 135.798 150.138C137.65 151.911 140.097 152.798 143.085 152.798C146.073 152.798 148.52 151.911 150.372 150.138C152.224 148.364 153.168 145.999 153.168 143.042V129.461H147.593V142.677Z" fill="#222B5E"/>
<path d="M168.983 147.544C168.458 147.718 167.917 147.805 167.357 147.805C166.484 147.805 165.855 147.596 165.435 147.161C165.016 146.727 164.806 146.083 164.806 145.214V132.676H170.713V128.328H164.806V123.094H162.342C161.573 124.92 160.682 126.363 159.686 127.441C158.69 128.519 157.449 129.406 155.964 130.119V132.658H159.127V144.692C159.127 147.283 159.756 149.231 161.032 150.518C162.307 151.805 164.194 152.465 166.693 152.465C167.34 152.465 168.144 152.344 169.105 152.118C170.066 151.891 170.817 151.613 171.377 151.3V146.727H170.59C170.031 147.092 169.489 147.37 168.965 147.544H168.983Z" fill="#222B5E"/>
<path d="M185.356 128.242C181.948 128.242 179.117 129.338 176.88 131.546C174.626 133.755 173.508 136.607 173.508 140.12V140.954C173.508 144.467 174.626 147.319 176.88 149.51C179.117 151.701 181.948 152.797 185.356 152.797C188.763 152.797 191.612 151.701 193.901 149.493C196.19 147.284 197.343 144.45 197.343 140.954V140.12C197.343 136.607 196.19 133.755 193.901 131.546C191.612 129.338 188.763 128.242 185.356 128.242ZM190.004 146.067C188.886 147.441 187.348 148.119 185.408 148.119C183.468 148.119 181.931 147.441 180.83 146.067C179.729 144.693 179.187 142.832 179.187 140.502C179.187 138.172 179.729 136.294 180.83 134.937C181.931 133.564 183.451 132.885 185.408 132.885C187.365 132.885 188.886 133.564 190.004 134.937C191.122 136.311 191.682 138.172 191.682 140.502C191.682 142.832 191.122 144.71 190.004 146.067Z" fill="#222B5E"/>
<path d="M194.775 126.434H203.688V152.066H209.542V126.434H218.104V121.391H194.775V126.434Z" fill="#222B5E"/>
<path d="M230.843 128.766C229.235 128.766 227.837 129.183 226.666 130.018C225.496 130.852 224.744 131.983 224.43 133.391H224.342L223.136 128.957H219.135V152.086H224.762V141.026C224.762 138.434 225.216 136.678 226.125 135.774C227.033 134.869 228.536 134.417 230.616 134.417H232.713V128.922C232.52 128.887 232.241 128.853 231.874 128.835C231.507 128.8 231.157 128.783 230.86 128.783L230.843 128.766Z" fill="#222B5E"/>
<path d="M301.196 128.244C297.911 128.244 295.167 129.374 292.948 131.635C290.729 133.896 289.628 136.748 289.628 140.173V140.921C289.628 144.347 290.729 147.182 292.948 149.425C295.167 151.668 297.928 152.799 301.249 152.799C304.062 152.799 306.421 152.155 308.308 150.851C309.986 149.703 311.157 148.121 311.803 146.103H306.107C305.705 146.712 305.215 147.182 304.639 147.512C303.835 147.982 302.769 148.208 301.441 148.208C299.763 148.208 298.4 147.686 297.352 146.642C296.303 145.599 295.639 144.138 295.395 142.243H312.223C312.258 141.808 312.275 141.391 312.293 140.991C312.293 140.591 312.31 140.226 312.31 139.878C312.31 136.417 311.279 133.617 309.2 131.461C307.12 129.305 304.464 128.227 301.214 128.227L301.196 128.244ZM295.534 137.861C295.936 136.174 296.618 134.904 297.596 134.07C298.575 133.235 299.833 132.818 301.388 132.818C302.944 132.818 304.114 133.27 305.041 134.157C305.949 135.043 306.456 136.278 306.543 137.861H295.534Z" fill="#222B5E"/>
<path d="M328.911 128.798C328.544 128.763 328.195 128.746 327.898 128.746C326.29 128.746 324.892 129.163 323.721 129.998C322.55 130.833 321.799 131.963 321.484 133.372H321.397L320.191 128.937H316.189V152.066H321.816V141.006C321.816 138.415 322.271 136.659 323.179 135.754C324.088 134.85 325.591 134.398 327.67 134.398H329.767V128.903C329.575 128.868 329.296 128.833 328.929 128.816L328.911 128.798Z" fill="#222B5E"/>
<path d="M113.168 122L101.268 151.319V152.067H107.034L109.358 145.963L109.848 144.659H122.377L122.866 145.963L125.191 152.067H131.184V151.319L119.302 122H113.168ZM111.77 139.599L114.513 132.364C115.003 131.078 115.37 130.104 115.579 129.478C115.789 128.852 115.964 128.26 116.086 127.739H116.174C116.261 128.104 116.383 128.504 116.523 128.921C116.663 129.339 117.065 130.486 117.746 132.364L120.455 139.599H111.735H111.77Z" fill="#222B5E"/>
<path d="M58 152.068H85.3131C88.9478 152.016 92.0758 149.686 93.4738 146.381L96.2348 139.582H63.0677L58 152.068Z" fill="#222B5E"/>
<path d="M103.347 122H76.0516C72.4343 122.052 69.2889 124.382 67.8909 127.687L65.1299 134.486H98.2795L103.347 122Z" fill="#B11212"/>
</g>
<defs>
<clipPath id="clip0_927_1444">
<rect width="271.75" height="32.7974" fill="white" transform="translate(58 120)"/>
</clipPath>
</defs>
</svg>
